<svg width="17" height="17" viewBox="0 0 17 17" fill="none" xmlns="http://www.w3.org/2000/svg">
<path fill-rule="evenodd" clip-rule="evenodd" d="M2.92314 6.38557e-07H13.1769C13.574 -1.36666e-05 13.9128 -2.58256e-05 14.1911 0.0283927C14.4867 0.0585841 14.7662 0.124735 15.0264 0.290464C15.4178 0.539694 15.7152 0.923014 15.8958 1.36616C16.0097 1.64555 16.0563 1.94423 16.0784 2.28263C16.1 2.6133 16.1 3.02205 16.1 3.53098V12.569C16.1 13.0779 16.1 13.4867 16.0784 13.8174C16.0563 14.1558 16.0097 14.4545 15.8958 14.7338C15.7152 15.177 15.4178 15.5603 15.0264 15.8095C14.7662 15.9753 14.4867 16.0414 14.1911 16.0716C13.9128 16.1 13.574 16.1 13.1769 16.1H2.92314C2.52601 16.1 2.18718 16.1 1.90892 16.0716C1.6133 16.0414 1.33376 15.9753 1.07355 15.8095C0.682241 15.5603 0.384814 15.177 0.204178 14.7338C0.0902944 14.4545 0.0437265 14.1558 0.0216076 13.8174C-5.88037e-06 13.4867 -3.19778e-06 13.0779 8.04735e-08 12.569V3.531C-3.19778e-06 3.02206 -5.88037e-06 2.6133 0.0216076 2.28263C0.0437265 1.94423 0.0902944 1.64555 0.204178 1.36616C0.384814 0.923014 0.682241 0.539694 1.07355 0.290464C1.33376 0.124735 1.6133 0.0585841 1.90892 0.0283927C2.18718 -2.58256e-05 2.52601 -1.36666e-05 2.92314 6.38557e-07ZM1.1 4.85V12.55C1.1 13.0823 1.10027 13.4551 1.11927 13.7456C1.13802 14.0325 1.1732 14.1969 1.2228 14.3186C1.32979 14.5811 1.4913 14.7714 1.66448 14.8817C1.72513 14.9204 1.81605 14.9564 2.02068 14.9773C2.23643 14.9993 2.51865 15 2.95 15H13.15C13.5814 15 13.8636 14.9993 14.0793 14.9773C14.284 14.9564 14.3749 14.9204 14.4355 14.8817C14.6087 14.7714 14.7702 14.5811 14.8772 14.3186C14.9268 14.1969 14.962 14.0325 14.9807 13.7456C14.9997 13.4551 15 13.0823 15 12.55V4.85H1.1ZM15 3.75H1.1V3.55C1.1 3.01768 1.10027 2.64492 1.11927 2.35438C1.13802 2.06746 1.1732 1.90307 1.2228 1.78138C1.32979 1.51892 1.4913 1.32856 1.66448 1.21826C1.72513 1.17963 1.81605 1.1436 2.02068 1.1227C2.23643 1.10067 2.51865 1.1 2.95 1.1H13.15C13.5814 1.1 13.8636 1.10067 14.0793 1.1227C14.284 1.1436 14.3749 1.17963 14.4355 1.21826C14.6087 1.32856 14.7702 1.51892 14.8772 1.78138C14.9268 1.90307 14.962 2.06746 14.9807 2.35438C14.9997 2.64492 15 3.01768 15 3.55V3.75ZM3 11.8C3 11.4962 3.24624 11.25 3.55 11.25H6.55C6.85376 11.25 7.1 11.4962 7.1 11.8C7.1 12.1038 6.85376 12.35 6.55 12.35H3.55C3.24624 12.35 3 12.1038 3 11.8ZM9 11.8C9 11.4962 9.24624 11.25 9.55 11.25H12.55C12.8538 11.25 13.1 11.4962 13.1 11.8C13.1 12.1038 12.8538 12.35 12.55 12.35H9.55C9.24624 12.35 9 12.1038 9 11.8Z" fill="#3C4242"/>
</svg>
